<?xml version="1.0" encoding="iso-8859-1"?>
<!-- Generator: Adobe Illustrator 19.0.0, SVG Export Plug-In . SVG Version: 6.00 Build 0)  -->
<svg version="1.1" id="Capa_1" xmlns="http://www.w3.org/2000/svg" xmlns:xlink="http://www.w3.org/1999/xlink" x="0px" y="0px"
	 viewBox="0 0 512 512" style="enable-background:new 0 0 512 512;" xml:space="preserve">
<path style="fill:#A9A499;" d="M210.281,446.369L256,433.912l146.968,40.045c-2.165,4.313-5.362,8.104-9.405,10.984l-27.439,19.55
	H210.281h-64.406l-27.439-19.55c-4.043-2.88-7.238-6.672-9.405-10.984L210.281,446.369z"/>
<path style="fill:#97BAD3;" d="M399.625,58.43c-6.801-13.04-11.124-22.36-12.748-37.507c-0.819-7.631-7.249-13.414-14.923-13.414
	H140.047c-7.674,0-14.104,5.785-14.923,13.414c-1.625,15.147-5.948,24.468-12.748,37.507c-2.956,5.669-4.88,11.787-5.833,18.076
	L256,116.552l149.457-40.045C404.503,70.218,402.581,64.099,399.625,58.43z"/>
<path style="fill:#649ED0;" d="M311.791,20.922c2.992,27.893,15.615,36.415,18.638,56.585c40.258,0,70.923-1.001,75.028-1.001
	c-0.954-6.289-2.876-12.408-5.833-18.076c-6.801-13.04-11.124-22.36-12.748-37.507c-0.819-7.63-7.249-13.413-14.923-13.413h-75.085
	C304.542,7.509,310.972,13.292,311.791,20.922z"/>
<path style="fill:#8C877E;" d="M291.04,504.491h75.085l27.439-19.55c4.043-2.88,7.238-6.672,9.405-10.984l-51.806-8.009
	l-23.279,8.009C323.635,482.416,320.509,483.494,291.04,504.491z"/>
<path style="fill:#D05422;" d="M367.126,91.524h39.044v368.957c0,4.748-1.129,9.351-3.202,13.476H210.281h-101.25
	c-2.072-4.126-3.202-8.728-3.202-13.476v-68.617L367.126,91.524z"/>
<path style="fill:#C14216;" d="M331.104,132.57c0.148,320.118,1.024,332.937-3.221,341.387h75.085
	c2.072-4.126,3.202-8.728,3.202-13.476V91.524L331.104,132.57z"/>
<path style="fill:#649ED0;" d="M106.543,76.507c12.859,0,286.063,0,298.915,0c0.46,3.029,0.713,6.095,0.713,9.175v5.842
	c-3.054,3.054-296.982,296.982-300.34,300.34V85.681C105.83,82.602,106.083,79.536,106.543,76.507z"/>
<path style="fill:#3177BA;" d="M405.457,76.507c-4.105,0-34.77,0-75.028,0c0.417,2.789,0.656,5.815,0.656,9.175
	c0,29.148,0.007,56.05,0.019,80.909c42.416-42.416,74.075-74.075,75.066-75.066v-5.842C406.17,82.602,405.917,79.536,405.457,76.507
	z"/>
<g>
	<path style="fill:#8C877E;" d="M386.97,512H125.03c-4.148,0-7.508-3.361-7.508-7.508s3.361-7.509,7.508-7.509h261.942
		c4.148,0,7.508,3.361,7.508,7.509S391.118,512,386.97,512z"/>
	<path style="fill:#8C877E;" d="M386.97,15.017H125.03c-4.148,0-7.508-3.361-7.508-7.509S120.882,0,125.03,0h261.942
		c4.148,0,7.508,3.361,7.508,7.509S391.118,15.017,386.97,15.017z"/>
</g>
<g>
</g>
<g>
</g>
<g>
</g>
<g>
</g>
<g>
</g>
<g>
</g>
<g>
</g>
<g>
</g>
<g>
</g>
<g>
</g>
<g>
</g>
<g>
</g>
<g>
</g>
<g>
</g>
<g>
</g>
</svg>
