<svg height="512" viewBox="0 0 128 128" width="512" xmlns="http://www.w3.org/2000/svg"><g><path d="m10.5 1.747h82.997v114.492h-82.997z" fill="#53433f"/><path d="m18.5 108.239v-7.739a7 7 0 0 1 7-7h53a7 7 0 0 1 7 7v7.737z" fill="#3e322e"/><path d="m18.5 9.75h67v75.75h-67z" fill="#deecf1"/><path d="m93.497 1.747h24.003v114.492h-24.003z" fill="#ff7816"/><path d="m101.497 9.747h8.003v33.503h-8.003z" fill="#ffd400"/><path d="m101.497 51.256h8.003v10.25h-8.003z" fill="#ffd400"/><path d="m93.497 116.239h16.003v10.008h-16.003z" fill="#c6715a" transform="matrix(-1 0 0 -1 202.997 242.486)"/><path d="m18.5 116.239h16.003v10.008h-16.003z" fill="#c6715a"/><path d="m27.22 19.875h10.781v14.931h-10.781z" fill="#ffd400"/><path d="m46.608 19.875h10.781v14.931h-10.781z" fill="#ffd400"/><path d="m65.995 19.875h10.781v14.931h-10.781z" fill="#ffd400"/><path d="m27.22 41.314h10.781v14.93h-10.781z" fill="#b0cccc"/><path d="m46.608 41.314h10.781v14.93h-10.781z" fill="#b0cccc"/><path d="m65.995 41.314h10.781v14.93h-10.781z" fill="#b0cccc"/><path d="m27.22 62.752h10.781v14.931h-10.781z" fill="#ffd400"/><path d="m46.608 62.752h10.781v14.931h-10.781z" fill="#ffd400"/><path d="m65.995 62.752h10.781v14.931h-10.781z" fill="#ffd400"/><g fill="#ff7816"><path d="m18.5 33.06h67v3.5h-67z"/><path d="m18.5 54.49h67v3.5h-67z"/><path d="m18.5 75.93h67v3.5h-67z"/></g></g></svg>