<?xml version="1.0" encoding="iso-8859-1"?>
<!-- Generator: Adobe Illustrator 19.0.0, SVG Export Plug-In . SVG Version: 6.00 Build 0)  -->
<svg version="1.1" id="Capa_1" xmlns="http://www.w3.org/2000/svg" xmlns:xlink="http://www.w3.org/1999/xlink" x="0px" y="0px"
	 viewBox="0 0 511.999 511.999" style="enable-background:new 0 0 511.999 511.999;" xml:space="preserve">
<path style="fill:#CDDBE7;" d="M386.097,57.864l-6.973-5.349c-7.969-6.113-12.641-15.585-12.641-25.629H145.517
	c0,10.043-4.672,19.516-12.641,25.629l-6.973,5.349c-3.574,2.742-5.669,6.989-5.669,11.494v393.645c0,3.889,1.809,7.556,4.894,9.922
	l16.214,12.438c2.632,2.019,4.175,5.148,4.175,8.465c0,5.893,4.777,10.669,10.669,10.669h199.627
	c5.892,0,10.669-4.777,10.669-10.669c0-3.317,1.543-6.446,4.175-8.465l16.214-12.438c3.085-2.367,4.894-6.034,4.894-9.922V69.358
	C391.766,64.853,389.671,60.606,386.097,57.864z"/>
<path style="fill:#B8CBD9;" d="M386.097,57.864l-6.973-5.349c-7.969-6.113-12.641-15.585-12.641-25.629H307.9
	c0,10.043,4.672,19.515,12.641,25.629l6.973,5.349c3.574,2.742,5.669,6.989,5.669,11.494v393.645c0,3.889-1.809,7.556-4.894,9.922
	l-16.214,12.438c-2.632,2.019-4.175,5.148-4.175,8.465c0,5.893-4.777,10.669-10.669,10.669h58.582
	c5.892,0,10.669-4.777,10.669-10.669c0-3.318,1.543-6.446,4.175-8.465l16.214-12.438c3.085-2.367,4.894-6.034,4.894-9.922V69.358
	C391.766,64.853,389.671,60.606,386.097,57.864z"/>
<path style="fill:#E5F9F6;" d="M377.334,32.911H134.666c-2.804,0-5.077-2.273-5.077-5.077V12.579c0-2.804,2.273-5.077,5.077-5.077
	h242.667c2.804,0,5.077,2.273,5.077,5.077v15.256C382.41,30.638,380.137,32.911,377.334,32.911z"/>
<path style="fill:#BFD8CE;" d="M377.334,7.502h-53.242v25.409h53.242c2.804,0,5.077-2.273,5.077-5.077V12.579
	C382.41,9.775,380.137,7.502,377.334,7.502z"/>
<path style="fill:#4E9AE5;" d="M120.234,70.042v392.961c0,0.37,0.031,0.735,0.064,1.1h271.404c0.032-0.365,0.064-0.73,0.064-1.1
	V70.042H120.234z"/>
<path style="fill:#3C8CCE;" d="M333.183,463.003c0,0.37-0.031,0.735-0.064,1.1h58.582c0.032-0.365,0.064-0.73,0.064-1.1V70.042
	h-58.582V463.003z"/>
<circle style="fill:#EFEFEF;" cx="256" cy="240.37" r="92.6"/>
<path style="fill:#FC502A;" d="M223.756,230.194c31.212,0,31.212-22.426,62.423-22.426c30.656,0,32.241,21.619,61.86,22.39
	c0.179,1.635,0.316,3.282,0.411,4.941c-2.734-48.689-43.078-87.329-92.45-87.329c-39.865,0-73.844,25.192-86.893,60.523
	C192.799,211.658,195.381,230.194,223.756,230.194z"/>
<path style="fill:#FED130;" d="M223.756,276.977c-30.118,0-31.178-20.881-59.266-22.34c6.86,44.371,45.217,78.339,91.509,78.339
	c38.321,0,71.184-23.288,85.264-56.474c-24.084-3.205-26.539-21.952-55.084-21.952C254.968,254.55,254.968,276.977,223.756,276.977z
	"/>
<path d="M317.252,385.682H194.748c-4.143,0-7.502,3.358-7.502,7.502s3.359,7.502,7.502,7.502h122.504
	c4.143,0,7.502-3.358,7.502-7.502S321.395,385.682,317.252,385.682z"/>
<path d="M317.252,416.723h-16.086c-4.143,0-7.502,3.358-7.502,7.502s3.359,7.502,7.502,7.502h16.086
	c4.143,0,7.502-3.358,7.502-7.502S321.395,416.723,317.252,416.723z"/>
<path d="M266.258,416.723h-71.51c-4.143,0-7.502,3.358-7.502,7.502s3.359,7.502,7.502,7.502h71.51c4.143,0,7.502-3.358,7.502-7.502
	S270.402,416.723,266.258,416.723z"/>
<path d="M162.307,205.127c-0.139,0.298-0.253,0.611-0.353,0.932c-3.919,10.708-6.06,22.266-6.06,34.314
	c0,5.206,0.4,10.319,1.17,15.313c0.011,0.075,0.024,0.15,0.037,0.224c7.488,47.846,48.983,84.569,98.898,84.569
	c41.132,0,76.543-24.939,91.924-60.487c0.19-0.362,0.355-0.74,0.485-1.137c4.955-11.853,7.697-24.853,7.697-38.482
	c0-1.909-0.059-3.803-0.165-5.686c0-0.005,0-0.011,0-0.016c-0.003-0.047-0.007-0.094-0.01-0.141
	c-0.048-0.832-0.106-1.662-0.174-2.488c-0.005-0.06-0.011-0.118-0.016-0.178c-0.067-0.792-0.142-1.581-0.228-2.367
	c-0.006-0.052-0.009-0.105-0.015-0.157c-0.003-0.023-0.008-0.046-0.011-0.069c-5.542-49.992-48.041-89.002-99.486-89.002
	C213.201,140.268,176.596,167.268,162.307,205.127z M256,325.474c-38.741,0-71.495-26.031-81.75-61.513
	c5.412,1.805,9.472,4.707,13.917,7.899c8.236,5.915,17.57,12.619,35.589,12.619c18.022,0,27.355-6.706,35.589-12.623
	c7.321-5.26,13.644-9.804,26.834-9.804c13.193,0,19.521,4.541,26.848,9.801c4.828,3.465,10.124,7.252,17.377,9.764
	C315.861,307.748,287.967,325.474,256,325.474z M341.101,240.372c0,9.609-1.624,18.84-4.573,27.462
	c-5.815-1.767-10.04-4.789-14.752-8.172c-8.238-5.913-17.576-12.615-35.597-12.615c-18.022,0-27.355,6.706-35.589,12.623
	c-7.321,5.26-13.644,9.804-26.834,9.804c-13.189,0-19.513-4.542-26.836-9.802c-6.542-4.698-13.845-9.922-25.675-11.846
	c-0.215-2.459-0.346-4.941-0.346-7.455c0-8.059,1.15-15.85,3.253-23.244c5.441,1.791,9.499,4.704,14.015,7.947
	c8.235,5.916,17.569,12.62,35.589,12.62c18.022,0,27.355-6.706,35.589-12.623c7.321-5.26,13.644-9.804,26.834-9.804
	c13.258,0,19.846,4.573,27.473,9.866c6.98,4.845,14.761,10.239,27.366,11.973C341.059,238.193,341.101,239.278,341.101,240.372z
	 M256,155.272c40.416,0,74.318,28.329,82.952,66.167c-6.743-1.705-11.494-4.986-16.744-8.629
	c-8.472-5.881-18.074-12.545-36.028-12.545c-18.022,0-27.355,6.706-35.589,12.623c-7.321,5.26-13.644,9.804-26.834,9.804
	c-13.189,0-19.513-4.542-26.835-9.802c-4.831-3.47-10.138-7.267-17.411-9.781C193.352,174.811,222.433,155.272,256,155.272z"/>
<path d="M390.663,51.911l-6.973-5.348c-2.259-1.733-4.164-3.836-5.686-6.184c6.624-0.351,11.909-5.835,11.909-12.545V12.579
	C389.912,5.643,384.27,0,377.334,0H134.666c-6.936,0-12.579,5.643-12.579,12.579v15.255c0,6.709,5.285,12.193,11.909,12.545
	c-1.522,2.348-3.427,4.45-5.686,6.183l-6.973,5.349c-5.388,4.133-8.605,10.654-8.605,17.446v393.645c0,0.296,0.011,0.57,0.024,0.827
	c0.248,5.877,3.122,11.454,7.805,15.048l16.214,12.439c0.776,0.595,1.24,1.535,1.24,2.512c0,10.019,8.152,18.171,18.171,18.171
	h199.627c10.019,0,18.171-8.152,18.171-18.171c0-0.978,0.464-1.918,1.24-2.513l16.214-12.438c4.683-3.593,7.557-9.17,7.805-15.048
	c0.014-0.257,0.024-0.531,0.024-0.827V69.358C399.268,62.566,396.051,56.044,390.663,51.911z M137.092,15.004h237.816v10.404h-7.728
	c-0.005,0-0.011,0-0.016,0H144.845c-0.01,0-0.019,0-0.029,0h-7.724V15.004z M366.092,479.411c-4.453,3.416-7.111,8.806-7.111,14.418
	c0,1.747-1.421,3.167-3.167,3.167H156.186c-1.746,0-3.167-1.42-3.167-3.167c0-5.612-2.658-11.002-7.111-14.417l-10.176-7.807
	h240.536L366.092,479.411z M384.264,456.6H127.736V77.545h31.939c4.143,0,7.502-3.358,7.502-7.502s-3.359-7.502-7.502-7.502h-27.542
	l5.31-4.073c6.074-4.66,10.62-10.934,13.188-18.054h210.736c2.569,7.12,7.114,13.394,13.189,18.055l5.309,4.072H194.583
	c-4.143,0-7.502,3.358-7.502,7.502s3.359,7.502,7.502,7.502h189.681L384.264,456.6L384.264,456.6z"/>
<g>
</g>
<g>
</g>
<g>
</g>
<g>
</g>
<g>
</g>
<g>
</g>
<g>
</g>
<g>
</g>
<g>
</g>
<g>
</g>
<g>
</g>
<g>
</g>
<g>
</g>
<g>
</g>
<g>
</g>
</svg>
