<svg id="Capa_1" enable-background="new 0 0 511.96 511.96" height="512" viewBox="0 0 511.96 511.96" width="512" xmlns="http://www.w3.org/2000/svg"><g><path d="m368.256 89.706h-224.552c-12.876 0-23.314 10.438-23.314 23.314v325.627c0 12.876 10.438 23.314 23.314 23.314h224.552c12.876 0 23.314-10.438 23.314-23.314v-325.627c0-12.876-10.438-23.314-23.314-23.314z" fill="#ff9eb1"/><g fill="#fff"><path d="m143.704 49.706h224.552v40h-224.552z"/><path d="m143.704 461.96h224.552v40h-224.552z"/><path d="m323.173 390.065h-130.165c-5.883 0-10.652-4.769-10.652-10.652v-16.988c0-5.883 4.769-10.652 10.652-10.652h130.165c5.883 0 10.652 4.769 10.652 10.652v16.988c0 5.883-4.769 10.652-10.652 10.652z"/></g><g><path d="m172.735 287.629c39.052 39.052 102.369 39.052 141.421 0s39.052-102.369 0-141.421z" fill="#ffda8f"/><g fill="#fff3da"><path d="m200.154 267.935c12.79 10.878 28.701 16.167 44.534 15.885 3.245-.058 5.542-3.209 4.702-6.344l-11.793-44.013c-1.004-3.749-5.69-5.004-8.435-2.26l-29.311 29.311c-2.086 2.085-1.944 5.51.303 7.421z"/><path d="m259.903 239.44 8.808 32.873c.855 3.191 4.481 4.684 7.368 3.079 5.299-2.947 10.285-6.663 14.786-11.163 4.501-4.501 8.217-9.486 11.164-14.786 1.605-2.887.112-6.513-3.079-7.368l-32.872-8.808c-3.749-1.006-7.18 2.425-6.175 6.173z"/><path d="m310.457 218.05c.282-15.832-5.008-31.743-15.885-44.533-1.911-2.246-5.336-2.388-7.421-.303l-29.31 29.31c-2.744 2.744-1.489 7.43 2.26 8.435l44.013 11.793c3.135.84 6.286-1.457 6.343-4.702z"/></g><g fill="#ff5d7d"><path d="m378.255 81.241v-31.535c0-5.523-4.478-10-10-10h-82.725l4.79-18.257c1.355-5.169.261-10.56-3.004-14.792-3.265-4.23-8.201-6.657-13.545-6.657h-35.582c-5.344 0-10.281 2.427-13.545 6.658-3.265 4.231-4.359 9.623-3.003 14.792l4.79 18.256h-82.726c-5.523 0-10 4.477-10 10v31.536c-13.498 4.257-23.314 16.892-23.314 31.778v325.626c0 14.886 9.816 27.521 23.314 31.778v31.536c0 5.523 4.477 10 10 10h224.551c5.522 0 10-4.477 10-10v-31.536c13.499-4.257 23.314-16.892 23.314-31.778v-325.626c0-14.887-9.816-27.522-23.315-31.779zm-136.317-61.241h28.085l-5.171 19.706h-17.745zm-88.234 39.706h204.551v20h-204.551zm204.551 432.254h-204.551v-20h204.551zm23.315-53.314c0 7.341-5.973 13.314-13.314 13.314h-224.552c-7.341 0-13.314-5.973-13.314-13.314v-325.626c0-7.341 5.973-13.314 13.314-13.314h224.551c7.342 0 13.314 5.973 13.314 13.314v325.626z"/><path d="m314.157 136.208c-2.652 0-5.195 1.054-7.071 2.929l-141.422 141.421c-1.875 1.875-2.929 4.419-2.929 7.071s1.054 5.196 2.929 7.071c21.445 21.444 49.613 32.166 77.782 32.166s56.338-10.722 77.782-32.167c42.888-42.889 42.888-112.674 0-155.563-1.876-1.874-4.419-2.928-7.071-2.928zm-7.072 144.35c-32.699 32.701-84.513 34.926-119.818 6.681l126.499-126.499c28.246 35.304 26.02 87.117-6.681 119.818z"/></g></g></g></svg>