<svg id="Capa_1" enable-background="new 0 0 512 512" height="512" viewBox="0 0 512 512" width="512" xmlns="http://www.w3.org/2000/svg"><g><g><g fill="#bc95e2"><path d="m171.669 171.669c10.781-10.781 5.26-49.051 5.26-49.051s-2.325-139.321-59.099-120.948c-28.739 9.301-23.033 37.512-12.955 59.866-18.665-8.882-35.493-9.945-44.389-1.049s-7.833 25.724 1.049 44.389c-22.354-10.079-50.565-15.785-59.865 12.954-18.373 56.774 120.949 59.099 120.949 59.099s38.269 5.521 49.05-5.26z"/><path d="m340.331 340.331c10.781-10.781 49.051-5.26 49.051-5.26s139.322 2.325 120.949 59.099c-9.301 28.739-37.512 23.033-59.866 12.955 8.882 18.665 9.945 35.493 1.049 44.389s-25.724 7.833-44.389-1.049c10.078 22.354 15.784 50.565-12.955 59.866-56.774 18.373-59.099-120.949-59.099-120.949s-5.521-38.27 5.26-49.051z"/></g><g fill="#ac80dd"><path d="m171.667 171.667c-10.782 10.782-49.049 5.258-49.049 5.258s-139.319-2.319-120.946-59.092c6.003-18.543 19.864-22.745 34.951-20.685 17.945 32.936 100.749 65.022 100.749 65.022s29.377 14.415 34.295 9.497z"/><path d="m394.167 510.328c-56.773 18.373-59.092-120.946-59.092-120.946s-5.524-38.267 5.258-49.049c-4.918 4.918 9.497 34.294 9.497 34.294s32.086 82.804 65.022 100.749c2.06 15.088-2.142 28.949-20.685 34.952z"/></g><path d="m419.166 218.54c-40.003-43.8-81.905-85.702-125.706-125.706-36.079-32.951-91.4-33.277-127.722-.594-25.792 23.208-50.291 47.707-73.499 73.499-16.97 18.86-25.041 42.842-24.266 66.593 14.135 14.135 19.97 18.245 35.811 35.59 3.413 3.737 5.729 23.156-.672 36.707 18.003 19.408 36.384 38.439 55.143 57.09 7.914 7.869 34.635 3.466 42.684 11.2 11.125 10.69 3.64 33.456 15.022 43.889.859.787 1.718 1.573 2.578 2.359 36.079 32.951 91.4 33.277 127.722.594 25.792-23.208 50.291-47.707 73.499-73.499 32.683-36.322 32.357-91.644-.594-127.722z" fill="#f9efda"/><path d="m364.129 403.267c-5.886 5.575-11.838 11.07-17.864 16.49-36.325 32.692-91.644 32.36-127.725-.591-.86-.785-1.719-1.572-2.578-2.359-9.784-8.968 2.414-35.602-7.18-44.76s-40.98-.841-50.384-10.189c-18.808-18.697-37.236-37.773-55.284-57.23 4.659-11.806 4.955-44.893 1.543-48.629-15.842-17.347-12.905-8.104-36.681-23.668-.775-23.751 7.296-47.732 24.271-66.593 5.42-6.026 10.915-11.978 16.49-17.864-4.231 30.58 4.815 62.652 27.006 86.955 45.01 49.278 92.153 96.422 141.431 141.431 24.303 22.192 56.375 31.239 86.955 27.007z" fill="#f6e4c1"/><path d="m368.299 164.91c-18.72 5.472-107.92 33.512-206.66 97.78-19.289 12.554-38.947 26.496-58.516 41.93-3.449-3.7-6.875-7.422-10.287-11.158-15.84-17.347-24.141-39.131-24.857-61.13 15.678-11.513 31.311-22.095 46.664-31.806 93.173-58.908 176.036-85.514 196.307-91.518 19.502 18.247 38.621 36.879 57.349 55.902z" fill="#bc95e2"/><path d="m443.822 289.763c-38.903 14.356-101.495 41.162-168.614 84.695-19.518 12.665-39.427 26.74-59.24 42.344-19.621-17.982-38.858-36.333-57.704-55.09 19.702-15.582 39.493-29.657 58.93-42.329 95.211-62.113 181.7-90.544 204.881-97.507 16.223 19.502 23.497 43.968 21.747 67.887z" fill="#bc95e2"/><g fill="#ac80dd"><path d="m135.741 234.828c8.551 9.364 17.184 18.661 25.898 27.862-19.289 12.554-38.947 26.496-58.516 41.93-3.449-3.7-6.875-7.422-10.287-11.158-15.84-17.347-24.141-39.131-24.857-61.13 15.678-11.513 31.311-22.095 46.664-31.806 4.674 12.355 11.704 24.023 21.098 34.302z"/><path d="m275.208 374.458c-19.518 12.665-39.427 26.74-59.24 42.344-19.621-17.982-38.858-36.333-57.704-55.09 19.702-15.582 39.493-29.657 58.93-42.329 18.993 18.698 38.333 37.063 58.014 55.075z"/></g></g><g fill="#ffe07d"><g><path d="m426.723 86.99-1.713-1.713c-6.043-6.043-6.375-15.733-.76-22.176l17.272-19.817c6.187-7.098 17.091-7.472 23.749-.814l4.258 4.258c6.658 6.658 6.284 17.562-.814 23.749l-19.816 17.273c-6.442 5.615-16.133 5.283-22.176-.76z"/><path d="m369.501 58.388-2.341-.627c-8.255-2.212-13.388-10.438-11.746-18.825l5.05-25.798c1.809-9.24 11.065-15.016 20.16-12.579l5.816 1.558c9.095 2.437 14.224 12.067 11.17 20.974l-8.525 24.867c-2.771 8.084-11.329 12.642-19.584 10.43z"/><path d="m454.239 144.84-.627-2.341c-2.212-8.255 2.346-16.813 10.43-19.585l24.867-8.525c8.907-3.054 18.537 2.075 20.974 11.17l1.558 5.816c2.437 9.095-3.339 18.352-12.579 20.161l-25.798 5.05c-8.387 1.642-16.613-3.491-18.825-11.746z"/></g><g><path d="m85.277 425.01 1.713 1.713c6.043 6.043 6.375 15.733.76 22.176l-17.272 19.817c-6.187 7.098-17.091 7.472-23.749.814l-4.258-4.258c-6.658-6.658-6.284-17.562.814-23.749l19.817-17.272c6.441-5.616 16.132-5.284 22.175.759z"/><path d="m142.499 453.612 2.341.627c8.255 2.212 13.388 10.438 11.746 18.825l-5.05 25.798c-1.809 9.24-11.065 15.016-20.161 12.579l-5.816-1.558c-9.095-2.437-14.224-12.067-11.17-20.974l8.525-24.867c2.772-8.084 11.33-12.642 19.585-10.43z"/><path d="m57.761 367.16.627 2.341c2.212 8.255-2.346 16.813-10.43 19.585l-24.867 8.525c-8.907 3.054-18.537-2.075-20.974-11.17l-1.558-5.816c-2.437-9.095 3.339-18.352 12.579-20.16l25.798-5.05c8.387-1.643 16.613 3.49 18.825 11.745z"/></g></g></g></svg>